<?xml version="1.0" encoding="utf-8" ?>
<svg xmlns="http://www.w3.org/2000/svg" xmlns:xlink="http://www.w3.org/1999/xlink" width="512" height="512">
	<defs>
		<linearGradient id="gradient_0" gradientUnits="userSpaceOnUse" x1="355.19601" y1="-11.4594" x2="171.44299" y2="482.13599">
			<stop offset="0" stop-color="#2B036E"/>
			<stop offset="1" stop-color="#00E6E3"/>
		</linearGradient>
	</defs>
	<path fill="url(#gradient_0)" d="M81.4747 86.6726L81.6518 86.4124C82.7612 84.8311 84.583 83.32 85.9625 81.9525L103.821 65.8693C132.992 42.0427 170.014 24.7878 207 17.757L228.75 14.2487C237.935 13.0571 247.01 12.731 256.268 12.7258C290.123 12.7069 323.46 19.1234 354.779 32.0361L379.51 43.181C382.345 44.4665 381.864 44.8792 384.754 43.5438L393.311 39.7043C410.126 32.6358 427.855 27.5858 446.211 27.5198C454.41 27.4903 473.414 28.7066 477.638 37.483C478.581 38.5469 479.102 40.4244 479.483 41.7768C484.732 60.3839 475.688 86.5232 467.437 103.244L463.131 111.617C460.406 116.563 460.366 114.755 462.862 120.019L474.041 143.395C486.414 171.485 494.723 200.502 497.499 231.125L498.503 253.458C498.504 259.704 499.042 266.749 497.767 272.851C497.481 284.486 495.229 296.516 492.75 307.875C473.359 396.726 404.897 468.86 315.984 489.737L283.765 495.465C279.634 495.939 275.823 496.53 271.625 496.63L240.457 496.671C238.406 496.599 236.179 496.669 234.176 496.255L219.392 494.26C185.511 490.193 152.143 476.433 123.501 458.347C117.526 454.574 111.03 450.558 105.739 445.847C105.074 445.759 103.097 443.898 102.457 443.396C75.1392 421.984 53.3601 392.858 38.1542 361.859C-2.40772 279.167 7.87127 175.807 66.1704 103.85C70.8744 98.0435 75.8287 91.5882 81.4747 86.6726ZM144.846 137.444C139.897 137.399 137.622 140.63 134.296 143.905L112.847 165.073C111.245 166.744 109.878 169.18 108.186 170.621C106.829 171.777 86.6067 170.15 83.5712 169.951L78.9761 169.72C77.2872 169.689 77.6328 170.3 76.7965 171.75L65.3608 189.308C60.3425 196.164 53.6461 201.208 63.7034 205.992C68.3801 208.216 73.3659 209.842 78.2415 211.569L183.052 252.768C187.175 254.451 191.826 256.012 195.541 258.487L144.125 325.054C141.821 328.003 139.405 332.037 136.35 334.189L80.8527 314.011C77.8278 316.186 64.3529 331.025 61.4524 334.636C58.1193 338.785 63.152 340.751 66.359 342.712C83.4249 353.147 102.303 358.101 118.742 367.44C116.941 371.403 114.632 376.35 116.19 380.75L116.325 381.145C120.477 392.944 134.011 386.721 136.023 387.545C137.434 388.123 143.74 401.099 144.914 403.153L165.927 437.063C168.475 440.995 171.088 445.576 174.989 448.323C178.005 446.171 180.166 443.388 182.569 440.607L202.386 417.69C204.026 415.862 205.903 413.956 207.227 411.887L186.987 372C184.432 366.67 181.733 361.319 179.706 355.762C182.102 352.706 185.07 349.986 187.827 347.251L219.289 317.875C223.879 313.698 228.705 308.572 234.72 306.524C237.18 309.125 238.714 312.319 240.422 315.425L297.926 434.71C300.756 440.564 303.828 453.86 311.9 445.705L342.291 412.836C340.984 407.245 340.726 401.339 340.389 395.625L339.692 373.399C341.48 371.768 343.495 370.433 345.266 368.77L356.075 357.603C360.458 353.073 367.085 347.994 369.248 341.875L369.387 341.497C370.59 337.914 366.628 333.999 363.524 333.108C359.426 331.933 355.265 337.465 352.845 340.067L343.164 350.58C341.434 352.422 339.696 354.471 337.732 356.059L337.801 355.736C338.223 353.561 338.064 351.322 338.053 349.118L337.983 339.043C337.96 336.925 337.162 335.4 339.393 334.177C343.121 332.133 357.302 317.408 358.246 313.375C359.231 309.17 354.365 305.787 351.47 303.73L342.377 311.824C340.056 314.01 337.752 316.36 335.128 318.18L334.693 318.485C335.003 316.213 334.748 314.381 334.657 312.137L329.293 231.871L328.996 228.698C329.124 226.934 333.586 223.04 334.786 221.812L408.126 149.133C415.669 141.446 429.687 123.214 440.974 123.709C438.42 117.505 439.832 117.003 442.709 110.75L450.125 95.7098C452.842 89.9777 454.877 84.1106 457.184 78.2227C459.515 69.3872 462.875 57.3903 462.045 48.1088C445.394 41.6266 405.793 51.7014 392.642 60.8803C378.668 70.6332 373.061 80.7195 355.835 88.1665L348.74 91.0585C342.786 93.4407 339.146 97.5686 334.638 102.031L285.316 152.132C283.304 154.223 266.307 172.86 266.274 172.876L169.317 170.801C171.251 168.49 172.914 166.192 174.984 163.949L184.72 153.695C187.012 151.337 190.584 148.619 189.708 144.897C188.635 140.339 183.677 136.597 179.145 140.535C175.894 143.36 173.059 146.755 170.033 149.823L158.518 161.481C152.624 167.549 153.785 169.86 146.21 169.829L135.448 169.788C133 169.781 130.43 169.565 128.057 170.252L139.145 158.404C143.241 154.127 148.613 149.779 151.21 144.405C150.123 140.614 148.643 138.649 144.898 137.506L144.846 137.444Z"/>
</svg>
